<?xml version="1.0" encoding="utf-8"?>
<!-- Generator: Adobe Illustrator 28.1.0, SVG Export Plug-In . SVG Version: 6.00 Build 0)  -->
<svg version="1.1" id="Layer_1" xmlns="http://www.w3.org/2000/svg" xmlns:xlink="http://www.w3.org/1999/xlink" x="0px" y="0px"
	 viewBox="0 0 198.4 198.4" style="enable-background:new 0 0 198.4 198.4;" xml:space="preserve">
<path d="M0,0h5.4v5.4H0V0z M5.4,0h5.4v5.4H5.4V0z M10.7,0h5.4v5.4h-5.4V0z M16.1,0h5.4v5.4h-5.4V0z M21.5,0h5.4v5.4h-5.4V0z M26.8,0
	h5.4v5.4h-5.4V0z M32.2,0h5.4v5.4h-5.4V0z M53.6,0H59v5.4h-5.4V0z M64.4,0h5.4v5.4h-5.4V0z M85.8,0h5.4v5.4h-5.4V0z M107.3,0h5.4
	v5.4h-5.4V0z M118,0h5.4v5.4H118V0z M128.7,0h5.4v5.4h-5.4V0z M139.4,0h5.4v5.4h-5.4V0z M150.2,0h5.4v5.4h-5.4V0z M160.9,0h5.4v5.4
	h-5.4V0z M166.2,0h5.4v5.4h-5.4V0z M171.6,0h5.4v5.4h-5.4V0z M177,0h5.4v5.4H177V0z M182.3,0h5.4v5.4h-5.4V0z M187.7,0h5.4v5.4h-5.4
	V0z M193.1,0h5.4v5.4h-5.4V0z M0,5.4h5.4v5.4H0V5.4z M32.2,5.4h5.4v5.4h-5.4V5.4z M48.3,5.4h5.4v5.4h-5.4V5.4z M59,5.4h5.4v5.4H59
	V5.4z M69.7,5.4h5.4v5.4h-5.4V5.4z M85.8,5.4h5.4v5.4h-5.4V5.4z M91.2,5.4h5.4v5.4h-5.4V5.4z M128.7,5.4h5.4v5.4h-5.4V5.4z
	 M139.4,5.4h5.4v5.4h-5.4V5.4z M150.2,5.4h5.4v5.4h-5.4V5.4z M160.9,5.4h5.4v5.4h-5.4V5.4z M193.1,5.4h5.4v5.4h-5.4V5.4z M0,10.7
	h5.4v5.4H0V10.7z M10.7,10.7h5.4v5.4h-5.4V10.7z M16.1,10.7h5.4v5.4h-5.4V10.7z M21.5,10.7h5.4v5.4h-5.4V10.7z M32.2,10.7h5.4v5.4
	h-5.4V10.7z M64.4,10.7h5.4v5.4h-5.4V10.7z M69.7,10.7h5.4v5.4h-5.4V10.7z M80.4,10.7h5.4v5.4h-5.4V10.7z M85.8,10.7h5.4v5.4h-5.4
	V10.7z M91.2,10.7h5.4v5.4h-5.4V10.7z M101.9,10.7h5.4v5.4h-5.4V10.7z M107.3,10.7h5.4v5.4h-5.4V10.7z M134.1,10.7h5.4v5.4h-5.4
	V10.7z M160.9,10.7h5.4v5.4h-5.4V10.7z M171.6,10.7h5.4v5.4h-5.4V10.7z M177,10.7h5.4v5.4H177V10.7z M182.3,10.7h5.4v5.4h-5.4V10.7z
	 M193.1,10.7h5.4v5.4h-5.4V10.7z M0,16.1h5.4v5.4H0V16.1z M10.7,16.1h5.4v5.4h-5.4V16.1z M16.1,16.1h5.4v5.4h-5.4V16.1z M21.5,16.1
	h5.4v5.4h-5.4V16.1z M32.2,16.1h5.4v5.4h-5.4V16.1z M48.3,16.1h5.4v5.4h-5.4V16.1z M53.6,16.1H59v5.4h-5.4V16.1z M59,16.1h5.4v5.4
	H59V16.1z M64.4,16.1h5.4v5.4h-5.4V16.1z M69.7,16.1h5.4v5.4h-5.4V16.1z M91.2,16.1h5.4v5.4h-5.4V16.1z M96.5,16.1h5.4v5.4h-5.4
	V16.1z M101.9,16.1h5.4v5.4h-5.4V16.1z M112.6,16.1h5.4v5.4h-5.4V16.1z M123.3,16.1h5.4v5.4h-5.4V16.1z M134.1,16.1h5.4v5.4h-5.4
	V16.1z M139.4,16.1h5.4v5.4h-5.4V16.1z M144.8,16.1h5.4v5.4h-5.4V16.1z M150.2,16.1h5.4v5.4h-5.4V16.1z M160.9,16.1h5.4v5.4h-5.4
	V16.1z M171.6,16.1h5.4v5.4h-5.4V16.1z M177,16.1h5.4v5.4H177V16.1z M182.3,16.1h5.4v5.4h-5.4V16.1z M193.1,16.1h5.4v5.4h-5.4V16.1z
	 M0,21.5h5.4v5.4H0V21.5z M10.7,21.5h5.4v5.4h-5.4V21.5z M16.1,21.5h5.4v5.4h-5.4V21.5z M21.5,21.5h5.4v5.4h-5.4V21.5z M32.2,21.5
	h5.4v5.4h-5.4V21.5z M42.9,21.5h5.4v5.4h-5.4V21.5z M48.3,21.5h5.4v5.4h-5.4V21.5z M53.6,21.5H59v5.4h-5.4V21.5z M59,21.5h5.4v5.4
	H59V21.5z M69.7,21.5h5.4v5.4h-5.4V21.5z M80.4,21.5h5.4v5.4h-5.4V21.5z M85.8,21.5h5.4v5.4h-5.4V21.5z M96.5,21.5h5.4v5.4h-5.4
	V21.5z M112.6,21.5h5.4v5.4h-5.4V21.5z M123.3,21.5h5.4v5.4h-5.4V21.5z M139.4,21.5h5.4v5.4h-5.4V21.5z M150.2,21.5h5.4v5.4h-5.4
	V21.5z M160.9,21.5h5.4v5.4h-5.4V21.5z M171.6,21.5h5.4v5.4h-5.4V21.5z M177,21.5h5.4v5.4H177V21.5z M182.3,21.5h5.4v5.4h-5.4V21.5z
	 M193.1,21.5h5.4v5.4h-5.4V21.5z M0,26.8h5.4v5.4H0V26.8z M32.2,26.8h5.4v5.4h-5.4V26.8z M59,26.8h5.4v5.4H59V26.8z M75.1,26.8h5.4
	v5.4h-5.4V26.8z M80.4,26.8h5.4v5.4h-5.4V26.8z M85.8,26.8h5.4v5.4h-5.4V26.8z M96.5,26.8h5.4v5.4h-5.4V26.8z M118,26.8h5.4v5.4H118
	V26.8z M123.3,26.8h5.4v5.4h-5.4V26.8z M128.7,26.8h5.4v5.4h-5.4V26.8z M134.1,26.8h5.4v5.4h-5.4V26.8z M150.2,26.8h5.4v5.4h-5.4
	V26.8z M160.9,26.8h5.4v5.4h-5.4V26.8z M193.1,26.8h5.4v5.4h-5.4V26.8z M0,32.2h5.4v5.4H0V32.2z M5.4,32.2h5.4v5.4H5.4V32.2z
	 M10.7,32.2h5.4v5.4h-5.4V32.2z M16.1,32.2h5.4v5.4h-5.4V32.2z M21.5,32.2h5.4v5.4h-5.4V32.2z M26.8,32.2h5.4v5.4h-5.4V32.2z
	 M32.2,32.2h5.4v5.4h-5.4V32.2z M42.9,32.2h5.4v5.4h-5.4V32.2z M53.6,32.2H59v5.4h-5.4V32.2z M64.4,32.2h5.4v5.4h-5.4V32.2z
	 M75.1,32.2h5.4v5.4h-5.4V32.2z M85.8,32.2h5.4v5.4h-5.4V32.2z M96.5,32.2h5.4v5.4h-5.4V32.2z M107.3,32.2h5.4v5.4h-5.4V32.2z
	 M118,32.2h5.4v5.4H118V32.2z M128.7,32.2h5.4v5.4h-5.4V32.2z M139.4,32.2h5.4v5.4h-5.4V32.2z M150.2,32.2h5.4v5.4h-5.4V32.2z
	 M160.9,32.2h5.4v5.4h-5.4V32.2z M166.2,32.2h5.4v5.4h-5.4V32.2z M171.6,32.2h5.4v5.4h-5.4V32.2z M177,32.2h5.4v5.4H177V32.2z
	 M182.3,32.2h5.4v5.4h-5.4V32.2z M187.7,32.2h5.4v5.4h-5.4V32.2z M193.1,32.2h5.4v5.4h-5.4V32.2z M42.9,37.5h5.4v5.4h-5.4V37.5z
	 M48.3,37.5h5.4v5.4h-5.4V37.5z M53.6,37.5H59v5.4h-5.4V37.5z M75.1,37.5h5.4v5.4h-5.4V37.5z M85.8,37.5h5.4v5.4h-5.4V37.5z
	 M96.5,37.5h5.4v5.4h-5.4V37.5z M101.9,37.5h5.4v5.4h-5.4V37.5z M123.3,37.5h5.4v5.4h-5.4V37.5z M144.8,37.5h5.4v5.4h-5.4V37.5z
	 M10.7,42.9h5.4v5.4h-5.4V42.9z M16.1,42.9h5.4v5.4h-5.4V42.9z M32.2,42.9h5.4v5.4h-5.4V42.9z M37.5,42.9h5.4v5.4h-5.4V42.9z
	 M42.9,42.9h5.4v5.4h-5.4V42.9z M48.3,42.9h5.4v5.4h-5.4V42.9z M53.6,42.9H59v5.4h-5.4V42.9z M64.4,42.9h5.4v5.4h-5.4V42.9z
	 M85.8,42.9h5.4v5.4h-5.4V42.9z M91.2,42.9h5.4v5.4h-5.4V42.9z M96.5,42.9h5.4v5.4h-5.4V42.9z M107.3,42.9h5.4v5.4h-5.4V42.9z
	 M112.6,42.9h5.4v5.4h-5.4V42.9z M128.7,42.9h5.4v5.4h-5.4V42.9z M134.1,42.9h5.4v5.4h-5.4V42.9z M144.8,42.9h5.4v5.4h-5.4V42.9z
	 M150.2,42.9h5.4v5.4h-5.4V42.9z M155.5,42.9h5.4v5.4h-5.4V42.9z M160.9,42.9h5.4v5.4h-5.4V42.9z M171.6,42.9h5.4v5.4h-5.4V42.9z
	 M5.4,48.3h5.4v5.4H5.4V48.3z M10.7,48.3h5.4v5.4h-5.4V48.3z M21.5,48.3h5.4v5.4h-5.4V48.3z M26.8,48.3h5.4v5.4h-5.4V48.3z
	 M42.9,48.3h5.4v5.4h-5.4V48.3z M53.6,48.3H59v5.4h-5.4V48.3z M59,48.3h5.4v5.4H59V48.3z M69.7,48.3h5.4v5.4h-5.4V48.3z M75.1,48.3
	h5.4v5.4h-5.4V48.3z M80.4,48.3h5.4v5.4h-5.4V48.3z M91.2,48.3h5.4v5.4h-5.4V48.3z M101.9,48.3h5.4v5.4h-5.4V48.3z M128.7,48.3h5.4
	v5.4h-5.4V48.3z M139.4,48.3h5.4v5.4h-5.4V48.3z M144.8,48.3h5.4v5.4h-5.4V48.3z M150.2,48.3h5.4v5.4h-5.4V48.3z M160.9,48.3h5.4
	v5.4h-5.4V48.3z M177,48.3h5.4v5.4H177V48.3z M0,53.6h5.4V59H0V53.6z M5.4,53.6h5.4V59H5.4V53.6z M16.1,53.6h5.4V59h-5.4V53.6z
	 M26.8,53.6h5.4V59h-5.4V53.6z M32.2,53.6h5.4V59h-5.4V53.6z M42.9,53.6h5.4V59h-5.4V53.6z M48.3,53.6h5.4V59h-5.4V53.6z M64.4,53.6
	h5.4V59h-5.4V53.6z M69.7,53.6h5.4V59h-5.4V53.6z M75.1,53.6h5.4V59h-5.4V53.6z M80.4,53.6h5.4V59h-5.4V53.6z M85.8,53.6h5.4V59
	h-5.4V53.6z M91.2,53.6h5.4V59h-5.4V53.6z M96.5,53.6h5.4V59h-5.4V53.6z M112.6,53.6h5.4V59h-5.4V53.6z M144.8,53.6h5.4V59h-5.4
	V53.6z M155.5,53.6h5.4V59h-5.4V53.6z M160.9,53.6h5.4V59h-5.4V53.6z M166.2,53.6h5.4V59h-5.4V53.6z M0,59h5.4v5.4H0V59z M10.7,59
	h5.4v5.4h-5.4V59z M21.5,59h5.4v5.4h-5.4V59z M37.5,59h5.4v5.4h-5.4V59z M48.3,59h5.4v5.4h-5.4V59z M53.6,59H59v5.4h-5.4V59z
	 M91.2,59h5.4v5.4h-5.4V59z M96.5,59h5.4v5.4h-5.4V59z M107.3,59h5.4v5.4h-5.4V59z M118,59h5.4v5.4H118V59z M128.7,59h5.4v5.4h-5.4
	V59z M134.1,59h5.4v5.4h-5.4V59z M139.4,59h5.4v5.4h-5.4V59z M144.8,59h5.4v5.4h-5.4V59z M155.5,59h5.4v5.4h-5.4V59z M166.2,59h5.4
	v5.4h-5.4V59z M171.6,59h5.4v5.4h-5.4V59z M182.3,59h5.4v5.4h-5.4V59z M193.1,59h5.4v5.4h-5.4V59z M5.4,64.4h5.4v5.4H5.4V64.4z
	 M32.2,64.4h5.4v5.4h-5.4V64.4z M37.5,64.4h5.4v5.4h-5.4V64.4z M42.9,64.4h5.4v5.4h-5.4V64.4z M48.3,64.4h5.4v5.4h-5.4V64.4z
	 M53.6,64.4H59v5.4h-5.4V64.4z M69.7,64.4h5.4v5.4h-5.4V64.4z M75.1,64.4h5.4v5.4h-5.4V64.4z M80.4,64.4h5.4v5.4h-5.4V64.4z
	 M85.8,64.4h5.4v5.4h-5.4V64.4z M91.2,64.4h5.4v5.4h-5.4V64.4z M96.5,64.4h5.4v5.4h-5.4V64.4z M107.3,64.4h5.4v5.4h-5.4V64.4z
	 M118,64.4h5.4v5.4H118V64.4z M128.7,64.4h5.4v5.4h-5.4V64.4z M134.1,64.4h5.4v5.4h-5.4V64.4z M139.4,64.4h5.4v5.4h-5.4V64.4z
	 M150.2,64.4h5.4v5.4h-5.4V64.4z M160.9,64.4h5.4v5.4h-5.4V64.4z M166.2,64.4h5.4v5.4h-5.4V64.4z M171.6,64.4h5.4v5.4h-5.4V64.4z
	 M182.3,64.4h5.4v5.4h-5.4V64.4z M193.1,64.4h5.4v5.4h-5.4V64.4z M5.4,69.7h5.4v5.4H5.4V69.7z M16.1,69.7h5.4v5.4h-5.4V69.7z
	 M21.5,69.7h5.4v5.4h-5.4V69.7z M26.8,69.7h5.4v5.4h-5.4V69.7z M42.9,69.7h5.4v5.4h-5.4V69.7z M59,69.7h5.4v5.4H59V69.7z M64.4,69.7
	h5.4v5.4h-5.4V69.7z M69.7,69.7h5.4v5.4h-5.4V69.7z M96.5,69.7h5.4v5.4h-5.4V69.7z M101.9,69.7h5.4v5.4h-5.4V69.7z M112.6,69.7h5.4
	v5.4h-5.4V69.7z M118,69.7h5.4v5.4H118V69.7z M123.3,69.7h5.4v5.4h-5.4V69.7z M139.4,69.7h5.4v5.4h-5.4V69.7z M144.8,69.7h5.4v5.4
	h-5.4V69.7z M150.2,69.7h5.4v5.4h-5.4V69.7z M160.9,69.7h5.4v5.4h-5.4V69.7z M171.6,69.7h5.4v5.4h-5.4V69.7z M177,69.7h5.4v5.4H177
	V69.7z M187.7,69.7h5.4v5.4h-5.4V69.7z M193.1,69.7h5.4v5.4h-5.4V69.7z M0,75.1h5.4v5.4H0V75.1z M32.2,75.1h5.4v5.4h-5.4V75.1z
	 M37.5,75.1h5.4v5.4h-5.4V75.1z M48.3,75.1h5.4v5.4h-5.4V75.1z M59,75.1h5.4v5.4H59V75.1z M80.4,75.1h5.4v5.4h-5.4V75.1z M96.5,75.1
	h5.4v5.4h-5.4V75.1z M123.3,75.1h5.4v5.4h-5.4V75.1z M128.7,75.1h5.4v5.4h-5.4V75.1z M134.1,75.1h5.4v5.4h-5.4V75.1z M139.4,75.1
	h5.4v5.4h-5.4V75.1z M166.2,75.1h5.4v5.4h-5.4V75.1z M177,75.1h5.4v5.4H177V75.1z M187.7,75.1h5.4v5.4h-5.4V75.1z M0,80.4h5.4v5.4H0
	V80.4z M10.7,80.4h5.4v5.4h-5.4V80.4z M16.1,80.4h5.4v5.4h-5.4V80.4z M21.5,80.4h5.4v5.4h-5.4V80.4z M42.9,80.4h5.4v5.4h-5.4V80.4z
	 M48.3,80.4h5.4v5.4h-5.4V80.4z M53.6,80.4H59v5.4h-5.4V80.4z M59,80.4h5.4v5.4H59V80.4z M64.4,80.4h5.4v5.4h-5.4V80.4z M69.7,80.4
	h5.4v5.4h-5.4V80.4z M75.1,80.4h5.4v5.4h-5.4V80.4z M80.4,80.4h5.4v5.4h-5.4V80.4z M96.5,80.4h5.4v5.4h-5.4V80.4z M107.3,80.4h5.4
	v5.4h-5.4V80.4z M128.7,80.4h5.4v5.4h-5.4V80.4z M150.2,80.4h5.4v5.4h-5.4V80.4z M155.5,80.4h5.4v5.4h-5.4V80.4z M160.9,80.4h5.4
	v5.4h-5.4V80.4z M166.2,80.4h5.4v5.4h-5.4V80.4z M187.7,80.4h5.4v5.4h-5.4V80.4z M193.1,80.4h5.4v5.4h-5.4V80.4z M0,85.8h5.4v5.4H0
	V85.8z M5.4,85.8h5.4v5.4H5.4V85.8z M10.7,85.8h5.4v5.4h-5.4V85.8z M16.1,85.8h5.4v5.4h-5.4V85.8z M21.5,85.8h5.4v5.4h-5.4V85.8z
	 M32.2,85.8h5.4v5.4h-5.4V85.8z M37.5,85.8h5.4v5.4h-5.4V85.8z M69.7,85.8h5.4v5.4h-5.4V85.8z M75.1,85.8h5.4v5.4h-5.4V85.8z
	 M80.4,85.8h5.4v5.4h-5.4V85.8z M85.8,85.8h5.4v5.4h-5.4V85.8z M91.2,85.8h5.4v5.4h-5.4V85.8z M101.9,85.8h5.4v5.4h-5.4V85.8z
	 M118,85.8h5.4v5.4H118V85.8z M128.7,85.8h5.4v5.4h-5.4V85.8z M134.1,85.8h5.4v5.4h-5.4V85.8z M144.8,85.8h5.4v5.4h-5.4V85.8z
	 M187.7,85.8h5.4v5.4h-5.4V85.8z M0,91.2h5.4v5.4H0V91.2z M5.4,91.2h5.4v5.4H5.4V91.2z M16.1,91.2h5.4v5.4h-5.4V91.2z M26.8,91.2
	h5.4v5.4h-5.4V91.2z M37.5,91.2h5.4v5.4h-5.4V91.2z M42.9,91.2h5.4v5.4h-5.4V91.2z M53.6,91.2H59v5.4h-5.4V91.2z M64.4,91.2h5.4v5.4
	h-5.4V91.2z M75.1,91.2h5.4v5.4h-5.4V91.2z M80.4,91.2h5.4v5.4h-5.4V91.2z M91.2,91.2h5.4v5.4h-5.4V91.2z M96.5,91.2h5.4v5.4h-5.4
	V91.2z M101.9,91.2h5.4v5.4h-5.4V91.2z M107.3,91.2h5.4v5.4h-5.4V91.2z M123.3,91.2h5.4v5.4h-5.4V91.2z M128.7,91.2h5.4v5.4h-5.4
	V91.2z M134.1,91.2h5.4v5.4h-5.4V91.2z M139.4,91.2h5.4v5.4h-5.4V91.2z M144.8,91.2h5.4v5.4h-5.4V91.2z M160.9,91.2h5.4v5.4h-5.4
	V91.2z M177,91.2h5.4v5.4H177V91.2z M182.3,91.2h5.4v5.4h-5.4V91.2z M187.7,91.2h5.4v5.4h-5.4V91.2z M0,96.5h5.4v5.4H0V96.5z
	 M16.1,96.5h5.4v5.4h-5.4V96.5z M21.5,96.5h5.4v5.4h-5.4V96.5z M32.2,96.5h5.4v5.4h-5.4V96.5z M37.5,96.5h5.4v5.4h-5.4V96.5z
	 M48.3,96.5h5.4v5.4h-5.4V96.5z M53.6,96.5H59v5.4h-5.4V96.5z M69.7,96.5h5.4v5.4h-5.4V96.5z M91.2,96.5h5.4v5.4h-5.4V96.5z
	 M96.5,96.5h5.4v5.4h-5.4V96.5z M101.9,96.5h5.4v5.4h-5.4V96.5z M118,96.5h5.4v5.4H118V96.5z M144.8,96.5h5.4v5.4h-5.4V96.5z
	 M166.2,96.5h5.4v5.4h-5.4V96.5z M171.6,96.5h5.4v5.4h-5.4V96.5z M177,96.5h5.4v5.4H177V96.5z M187.7,96.5h5.4v5.4h-5.4V96.5z
	 M193.1,96.5h5.4v5.4h-5.4V96.5z M21.5,101.9h5.4v5.4h-5.4V101.9z M26.8,101.9h5.4v5.4h-5.4V101.9z M64.4,101.9h5.4v5.4h-5.4V101.9z
	 M69.7,101.9h5.4v5.4h-5.4V101.9z M96.5,101.9h5.4v5.4h-5.4V101.9z M101.9,101.9h5.4v5.4h-5.4V101.9z M107.3,101.9h5.4v5.4h-5.4
	V101.9z M128.7,101.9h5.4v5.4h-5.4V101.9z M144.8,101.9h5.4v5.4h-5.4V101.9z M150.2,101.9h5.4v5.4h-5.4V101.9z M155.5,101.9h5.4v5.4
	h-5.4V101.9z M160.9,101.9h5.4v5.4h-5.4V101.9z M171.6,101.9h5.4v5.4h-5.4V101.9z M177,101.9h5.4v5.4H177V101.9z M0,107.3h5.4v5.4H0
	V107.3z M5.4,107.3h5.4v5.4H5.4V107.3z M10.7,107.3h5.4v5.4h-5.4V107.3z M21.5,107.3h5.4v5.4h-5.4V107.3z M32.2,107.3h5.4v5.4h-5.4
	V107.3z M37.5,107.3h5.4v5.4h-5.4V107.3z M42.9,107.3h5.4v5.4h-5.4V107.3z M48.3,107.3h5.4v5.4h-5.4V107.3z M53.6,107.3H59v5.4h-5.4
	V107.3z M75.1,107.3h5.4v5.4h-5.4V107.3z M91.2,107.3h5.4v5.4h-5.4V107.3z M96.5,107.3h5.4v5.4h-5.4V107.3z M112.6,107.3h5.4v5.4
	h-5.4V107.3z M118,107.3h5.4v5.4H118V107.3z M123.3,107.3h5.4v5.4h-5.4V107.3z M128.7,107.3h5.4v5.4h-5.4V107.3z M139.4,107.3h5.4
	v5.4h-5.4V107.3z M144.8,107.3h5.4v5.4h-5.4V107.3z M155.5,107.3h5.4v5.4h-5.4V107.3z M166.2,107.3h5.4v5.4h-5.4V107.3z
	 M187.7,107.3h5.4v5.4h-5.4V107.3z M0,112.6h5.4v5.4H0V112.6z M10.7,112.6h5.4v5.4h-5.4V112.6z M16.1,112.6h5.4v5.4h-5.4V112.6z
	 M42.9,112.6h5.4v5.4h-5.4V112.6z M53.6,112.6H59v5.4h-5.4V112.6z M59,112.6h5.4v5.4H59V112.6z M75.1,112.6h5.4v5.4h-5.4V112.6z
	 M80.4,112.6h5.4v5.4h-5.4V112.6z M85.8,112.6h5.4v5.4h-5.4V112.6z M107.3,112.6h5.4v5.4h-5.4V112.6z M112.6,112.6h5.4v5.4h-5.4
	V112.6z M118,112.6h5.4v5.4H118V112.6z M123.3,112.6h5.4v5.4h-5.4V112.6z M134.1,112.6h5.4v5.4h-5.4V112.6z M139.4,112.6h5.4v5.4
	h-5.4V112.6z M166.2,112.6h5.4v5.4h-5.4V112.6z M177,112.6h5.4v5.4H177V112.6z M182.3,112.6h5.4v5.4h-5.4V112.6z M187.7,112.6h5.4
	v5.4h-5.4V112.6z M193.1,112.6h5.4v5.4h-5.4V112.6z M0,118h5.4v5.4H0V118z M5.4,118h5.4v5.4H5.4V118z M21.5,118h5.4v5.4h-5.4V118z
	 M26.8,118h5.4v5.4h-5.4V118z M32.2,118h5.4v5.4h-5.4V118z M37.5,118h5.4v5.4h-5.4V118z M42.9,118h5.4v5.4h-5.4V118z M53.6,118H59
	v5.4h-5.4V118z M59,118h5.4v5.4H59V118z M64.4,118h5.4v5.4h-5.4V118z M69.7,118h5.4v5.4h-5.4V118z M107.3,118h5.4v5.4h-5.4V118z
	 M118,118h5.4v5.4H118V118z M128.7,118h5.4v5.4h-5.4V118z M134.1,118h5.4v5.4h-5.4V118z M150.2,118h5.4v5.4h-5.4V118z M160.9,118
	h5.4v5.4h-5.4V118z M177,118h5.4v5.4H177V118z M182.3,118h5.4v5.4h-5.4V118z M26.8,123.3h5.4v5.4h-5.4V123.3z M53.6,123.3H59v5.4
	h-5.4V123.3z M59,123.3h5.4v5.4H59V123.3z M64.4,123.3h5.4v5.4h-5.4V123.3z M69.7,123.3h5.4v5.4h-5.4V123.3z M75.1,123.3h5.4v5.4
	h-5.4V123.3z M80.4,123.3h5.4v5.4h-5.4V123.3z M91.2,123.3h5.4v5.4h-5.4V123.3z M107.3,123.3h5.4v5.4h-5.4V123.3z M123.3,123.3h5.4
	v5.4h-5.4V123.3z M144.8,123.3h5.4v5.4h-5.4V123.3z M150.2,123.3h5.4v5.4h-5.4V123.3z M160.9,123.3h5.4v5.4h-5.4V123.3z
	 M182.3,123.3h5.4v5.4h-5.4V123.3z M187.7,123.3h5.4v5.4h-5.4V123.3z M193.1,123.3h5.4v5.4h-5.4V123.3z M16.1,128.7h5.4v5.4h-5.4
	V128.7z M26.8,128.7h5.4v5.4h-5.4V128.7z M32.2,128.7h5.4v5.4h-5.4V128.7z M37.5,128.7h5.4v5.4h-5.4V128.7z M53.6,128.7H59v5.4h-5.4
	V128.7z M59,128.7h5.4v5.4H59V128.7z M64.4,128.7h5.4v5.4h-5.4V128.7z M69.7,128.7h5.4v5.4h-5.4V128.7z M80.4,128.7h5.4v5.4h-5.4
	V128.7z M85.8,128.7h5.4v5.4h-5.4V128.7z M91.2,128.7h5.4v5.4h-5.4V128.7z M96.5,128.7h5.4v5.4h-5.4V128.7z M101.9,128.7h5.4v5.4
	h-5.4V128.7z M112.6,128.7h5.4v5.4h-5.4V128.7z M118,128.7h5.4v5.4H118V128.7z M128.7,128.7h5.4v5.4h-5.4V128.7z M139.4,128.7h5.4
	v5.4h-5.4V128.7z M144.8,128.7h5.4v5.4h-5.4V128.7z M150.2,128.7h5.4v5.4h-5.4V128.7z M155.5,128.7h5.4v5.4h-5.4V128.7z
	 M166.2,128.7h5.4v5.4h-5.4V128.7z M171.6,128.7h5.4v5.4h-5.4V128.7z M182.3,128.7h5.4v5.4h-5.4V128.7z M10.7,134.1h5.4v5.4h-5.4
	V134.1z M16.1,134.1h5.4v5.4h-5.4V134.1z M42.9,134.1h5.4v5.4h-5.4V134.1z M59,134.1h5.4v5.4H59V134.1z M64.4,134.1h5.4v5.4h-5.4
	V134.1z M85.8,134.1h5.4v5.4h-5.4V134.1z M107.3,134.1h5.4v5.4h-5.4V134.1z M112.6,134.1h5.4v5.4h-5.4V134.1z M118,134.1h5.4v5.4
	H118V134.1z M123.3,134.1h5.4v5.4h-5.4V134.1z M128.7,134.1h5.4v5.4h-5.4V134.1z M134.1,134.1h5.4v5.4h-5.4V134.1z M139.4,134.1h5.4
	v5.4h-5.4V134.1z M155.5,134.1h5.4v5.4h-5.4V134.1z M171.6,134.1h5.4v5.4h-5.4V134.1z M182.3,134.1h5.4v5.4h-5.4V134.1z
	 M193.1,134.1h5.4v5.4h-5.4V134.1z M5.4,139.4h5.4v5.4H5.4V139.4z M10.7,139.4h5.4v5.4h-5.4V139.4z M26.8,139.4h5.4v5.4h-5.4V139.4z
	 M32.2,139.4h5.4v5.4h-5.4V139.4z M59,139.4h5.4v5.4H59V139.4z M69.7,139.4h5.4v5.4h-5.4V139.4z M75.1,139.4h5.4v5.4h-5.4V139.4z
	 M85.8,139.4h5.4v5.4h-5.4V139.4z M91.2,139.4h5.4v5.4h-5.4V139.4z M101.9,139.4h5.4v5.4h-5.4V139.4z M112.6,139.4h5.4v5.4h-5.4
	V139.4z M118,139.4h5.4v5.4H118V139.4z M123.3,139.4h5.4v5.4h-5.4V139.4z M139.4,139.4h5.4v5.4h-5.4V139.4z M160.9,139.4h5.4v5.4
	h-5.4V139.4z M171.6,139.4h5.4v5.4h-5.4V139.4z M187.7,139.4h5.4v5.4h-5.4V139.4z M0,144.8h5.4v5.4H0V144.8z M10.7,144.8h5.4v5.4
	h-5.4V144.8z M16.1,144.8h5.4v5.4h-5.4V144.8z M26.8,144.8h5.4v5.4h-5.4V144.8z M42.9,144.8h5.4v5.4h-5.4V144.8z M48.3,144.8h5.4
	v5.4h-5.4V144.8z M53.6,144.8H59v5.4h-5.4V144.8z M69.7,144.8h5.4v5.4h-5.4V144.8z M85.8,144.8h5.4v5.4h-5.4V144.8z M96.5,144.8h5.4
	v5.4h-5.4V144.8z M107.3,144.8h5.4v5.4h-5.4V144.8z M112.6,144.8h5.4v5.4h-5.4V144.8z M123.3,144.8h5.4v5.4h-5.4V144.8z
	 M144.8,144.8h5.4v5.4h-5.4V144.8z M171.6,144.8h5.4v5.4h-5.4V144.8z M177,144.8h5.4v5.4H177V144.8z M187.7,144.8h5.4v5.4h-5.4
	V144.8z M10.7,150.2h5.4v5.4h-5.4V150.2z M16.1,150.2h5.4v5.4h-5.4V150.2z M21.5,150.2h5.4v5.4h-5.4V150.2z M32.2,150.2h5.4v5.4
	h-5.4V150.2z M42.9,150.2h5.4v5.4h-5.4V150.2z M48.3,150.2h5.4v5.4h-5.4V150.2z M59,150.2h5.4v5.4H59V150.2z M64.4,150.2h5.4v5.4
	h-5.4V150.2z M80.4,150.2h5.4v5.4h-5.4V150.2z M107.3,150.2h5.4v5.4h-5.4V150.2z M118,150.2h5.4v5.4H118V150.2z M128.7,150.2h5.4
	v5.4h-5.4V150.2z M134.1,150.2h5.4v5.4h-5.4V150.2z M150.2,150.2h5.4v5.4h-5.4V150.2z M155.5,150.2h5.4v5.4h-5.4V150.2z
	 M160.9,150.2h5.4v5.4h-5.4V150.2z M166.2,150.2h5.4v5.4h-5.4V150.2z M171.6,150.2h5.4v5.4h-5.4V150.2z M177,150.2h5.4v5.4H177
	V150.2z M182.3,150.2h5.4v5.4h-5.4V150.2z M193.1,150.2h5.4v5.4h-5.4V150.2z M42.9,155.5h5.4v5.4h-5.4V155.5z M59,155.5h5.4v5.4H59
	V155.5z M69.7,155.5h5.4v5.4h-5.4V155.5z M75.1,155.5h5.4v5.4h-5.4V155.5z M80.4,155.5h5.4v5.4h-5.4V155.5z M85.8,155.5h5.4v5.4
	h-5.4V155.5z M96.5,155.5h5.4v5.4h-5.4V155.5z M101.9,155.5h5.4v5.4h-5.4V155.5z M112.6,155.5h5.4v5.4h-5.4V155.5z M118,155.5h5.4
	v5.4H118V155.5z M123.3,155.5h5.4v5.4h-5.4V155.5z M134.1,155.5h5.4v5.4h-5.4V155.5z M139.4,155.5h5.4v5.4h-5.4V155.5z M150.2,155.5
	h5.4v5.4h-5.4V155.5z M171.6,155.5h5.4v5.4h-5.4V155.5z M193.1,155.5h5.4v5.4h-5.4V155.5z M0,160.9h5.4v5.4H0V160.9z M5.4,160.9h5.4
	v5.4H5.4V160.9z M10.7,160.9h5.4v5.4h-5.4V160.9z M16.1,160.9h5.4v5.4h-5.4V160.9z M21.5,160.9h5.4v5.4h-5.4V160.9z M26.8,160.9h5.4
	v5.4h-5.4V160.9z M32.2,160.9h5.4v5.4h-5.4V160.9z M42.9,160.9h5.4v5.4h-5.4V160.9z M53.6,160.9H59v5.4h-5.4V160.9z M69.7,160.9h5.4
	v5.4h-5.4V160.9z M75.1,160.9h5.4v5.4h-5.4V160.9z M91.2,160.9h5.4v5.4h-5.4V160.9z M96.5,160.9h5.4v5.4h-5.4V160.9z M101.9,160.9
	h5.4v5.4h-5.4V160.9z M107.3,160.9h5.4v5.4h-5.4V160.9z M112.6,160.9h5.4v5.4h-5.4V160.9z M118,160.9h5.4v5.4H118V160.9z
	 M134.1,160.9h5.4v5.4h-5.4V160.9z M139.4,160.9h5.4v5.4h-5.4V160.9z M150.2,160.9h5.4v5.4h-5.4V160.9z M160.9,160.9h5.4v5.4h-5.4
	V160.9z M171.6,160.9h5.4v5.4h-5.4V160.9z M187.7,160.9h5.4v5.4h-5.4V160.9z M193.1,160.9h5.4v5.4h-5.4V160.9z M0,166.2h5.4v5.4H0
	V166.2z M32.2,166.2h5.4v5.4h-5.4V166.2z M59,166.2h5.4v5.4H59V166.2z M64.4,166.2h5.4v5.4h-5.4V166.2z M69.7,166.2h5.4v5.4h-5.4
	V166.2z M75.1,166.2h5.4v5.4h-5.4V166.2z M85.8,166.2h5.4v5.4h-5.4V166.2z M101.9,166.2h5.4v5.4h-5.4V166.2z M107.3,166.2h5.4v5.4
	h-5.4V166.2z M112.6,166.2h5.4v5.4h-5.4V166.2z M118,166.2h5.4v5.4H118V166.2z M144.8,166.2h5.4v5.4h-5.4V166.2z M150.2,166.2h5.4
	v5.4h-5.4V166.2z M171.6,166.2h5.4v5.4h-5.4V166.2z M177,166.2h5.4v5.4H177V166.2z M187.7,166.2h5.4v5.4h-5.4V166.2z M193.1,166.2
	h5.4v5.4h-5.4V166.2z M0,171.6h5.4v5.4H0V171.6z M10.7,171.6h5.4v5.4h-5.4V171.6z M16.1,171.6h5.4v5.4h-5.4V171.6z M21.5,171.6h5.4
	v5.4h-5.4V171.6z M32.2,171.6h5.4v5.4h-5.4V171.6z M59,171.6h5.4v5.4H59V171.6z M64.4,171.6h5.4v5.4h-5.4V171.6z M75.1,171.6h5.4
	v5.4h-5.4V171.6z M80.4,171.6h5.4v5.4h-5.4V171.6z M85.8,171.6h5.4v5.4h-5.4V171.6z M101.9,171.6h5.4v5.4h-5.4V171.6z M118,171.6
	h5.4v5.4H118V171.6z M128.7,171.6h5.4v5.4h-5.4V171.6z M139.4,171.6h5.4v5.4h-5.4V171.6z M150.2,171.6h5.4v5.4h-5.4V171.6z
	 M155.5,171.6h5.4v5.4h-5.4V171.6z M160.9,171.6h5.4v5.4h-5.4V171.6z M166.2,171.6h5.4v5.4h-5.4V171.6z M171.6,171.6h5.4v5.4h-5.4
	V171.6z M182.3,171.6h5.4v5.4h-5.4V171.6z M0,177h5.4v5.4H0V177z M10.7,177h5.4v5.4h-5.4V177z M16.1,177h5.4v5.4h-5.4V177z
	 M21.5,177h5.4v5.4h-5.4V177z M32.2,177h5.4v5.4h-5.4V177z M42.9,177h5.4v5.4h-5.4V177z M48.3,177h5.4v5.4h-5.4V177z M53.6,177H59
	v5.4h-5.4V177z M59,177h5.4v5.4H59V177z M69.7,177h5.4v5.4h-5.4V177z M80.4,177h5.4v5.4h-5.4V177z M107.3,177h5.4v5.4h-5.4V177z
	 M128.7,177h5.4v5.4h-5.4V177z M144.8,177h5.4v5.4h-5.4V177z M150.2,177h5.4v5.4h-5.4V177z M155.5,177h5.4v5.4h-5.4V177z M160.9,177
	h5.4v5.4h-5.4V177z M166.2,177h5.4v5.4h-5.4V177z M177,177h5.4v5.4H177V177z M182.3,177h5.4v5.4h-5.4V177z M0,182.3h5.4v5.4H0V182.3
	z M10.7,182.3h5.4v5.4h-5.4V182.3z M16.1,182.3h5.4v5.4h-5.4V182.3z M21.5,182.3h5.4v5.4h-5.4V182.3z M32.2,182.3h5.4v5.4h-5.4
	V182.3z M42.9,182.3h5.4v5.4h-5.4V182.3z M64.4,182.3h5.4v5.4h-5.4V182.3z M69.7,182.3h5.4v5.4h-5.4V182.3z M75.1,182.3h5.4v5.4
	h-5.4V182.3z M80.4,182.3h5.4v5.4h-5.4V182.3z M101.9,182.3h5.4v5.4h-5.4V182.3z M118,182.3h5.4v5.4H118V182.3z M123.3,182.3h5.4
	v5.4h-5.4V182.3z M128.7,182.3h5.4v5.4h-5.4V182.3z M134.1,182.3h5.4v5.4h-5.4V182.3z M139.4,182.3h5.4v5.4h-5.4V182.3z
	 M144.8,182.3h5.4v5.4h-5.4V182.3z M150.2,182.3h5.4v5.4h-5.4V182.3z M166.2,182.3h5.4v5.4h-5.4V182.3z M171.6,182.3h5.4v5.4h-5.4
	V182.3z M177,182.3h5.4v5.4H177V182.3z M187.7,182.3h5.4v5.4h-5.4V182.3z M0,187.7h5.4v5.4H0V187.7z M32.2,187.7h5.4v5.4h-5.4V187.7
	z M48.3,187.7h5.4v5.4h-5.4V187.7z M53.6,187.7H59v5.4h-5.4V187.7z M64.4,187.7h5.4v5.4h-5.4V187.7z M69.7,187.7h5.4v5.4h-5.4V187.7
	z M80.4,187.7h5.4v5.4h-5.4V187.7z M85.8,187.7h5.4v5.4h-5.4V187.7z M96.5,187.7h5.4v5.4h-5.4V187.7z M101.9,187.7h5.4v5.4h-5.4
	V187.7z M107.3,187.7h5.4v5.4h-5.4V187.7z M112.6,187.7h5.4v5.4h-5.4V187.7z M134.1,187.7h5.4v5.4h-5.4V187.7z M139.4,187.7h5.4v5.4
	h-5.4V187.7z M150.2,187.7h5.4v5.4h-5.4V187.7z M155.5,187.7h5.4v5.4h-5.4V187.7z M160.9,187.7h5.4v5.4h-5.4V187.7z M171.6,187.7
	h5.4v5.4h-5.4V187.7z M177,187.7h5.4v5.4H177V187.7z M182.3,187.7h5.4v5.4h-5.4V187.7z M0,193.1h5.4v5.4H0V193.1z M5.4,193.1h5.4
	v5.4H5.4V193.1z M10.7,193.1h5.4v5.4h-5.4V193.1z M16.1,193.1h5.4v5.4h-5.4V193.1z M21.5,193.1h5.4v5.4h-5.4V193.1z M26.8,193.1h5.4
	v5.4h-5.4V193.1z M32.2,193.1h5.4v5.4h-5.4V193.1z M48.3,193.1h5.4v5.4h-5.4V193.1z M53.6,193.1H59v5.4h-5.4V193.1z M64.4,193.1h5.4
	v5.4h-5.4V193.1z M75.1,193.1h5.4v5.4h-5.4V193.1z M80.4,193.1h5.4v5.4h-5.4V193.1z M85.8,193.1h5.4v5.4h-5.4V193.1z M112.6,193.1
	h5.4v5.4h-5.4V193.1z M134.1,193.1h5.4v5.4h-5.4V193.1z M139.4,193.1h5.4v5.4h-5.4V193.1z M160.9,193.1h5.4v5.4h-5.4V193.1z
	 M171.6,193.1h5.4v5.4h-5.4V193.1z M177,193.1h5.4v5.4H177V193.1z M182.3,193.1h5.4v5.4h-5.4V193.1z M187.7,193.1h5.4v5.4h-5.4
	V193.1z M193.1,193.1h5.4v5.4h-5.4V193.1z"/>
</svg>
